<?xml version="1.0" encoding="utf-8"?>
<!-- Generator: Adobe Illustrator 25.1.0, SVG Export Plug-In . SVG Version: 6.00 Build 0)  -->
<svg version="1.1" id="Layer_1" xmlns="http://www.w3.org/2000/svg" xmlns:xlink="http://www.w3.org/1999/xlink" x="0px" y="0px"
	 viewBox="0 0 1950 1000" style="enable-background:new 0 0 1950 1000;" xml:space="preserve">
<style type="text/css">
	.st0{fill:#FFAF19;}
</style>
<g>
	<path d="M1751.4,734.8c0,11.7-10.6,17.8-22.1,17.8c-8.2,0-13.6-3.9-13.6-11c0-8,6.7-11,15.8-12.6l19.9-3.7V734.8z M1721.3,777.9
		c14.9,0,26.2-4.5,33.8-12.3c5.8,9.7,19.3,13.4,39.2,10.2v-25.6c-6.7,0.9-8.9-0.9-8.9-6.7v-44c0-26.6-18.4-40.3-48.3-40.3
		c-29,0-47,16.5-52,36.6l33.1,5c2.2-9.3,7.4-13.6,17.3-13.6c11.3,0,15.8,5.4,15.8,13.9v2l-25.6,4.3c-24,3.5-44,13-44,36.6
		C1681.9,764.1,1698.3,777.9,1721.3,777.9 M1565.1,759.1c10.6,12.3,33.1,19.1,53.1,19.1c29,0,52-14.5,52-39.4
		c0-25.8-23-30.8-43.5-34.9c-13.9-2.6-20.6-3.5-20.6-9.7c0-5.2,5.4-8.4,13.9-8.4c11.3,0,22.5,5,31.2,14.1l17.3-22.3
		c-9.5-10.4-27.7-18.2-48.3-18.2c-28.2,0-48.7,15.4-48.7,38.6c0,24.7,20.1,29.7,39,33.4c18.2,3.2,25.8,4.1,25.8,11.7
		c0,6.1-7.6,9.1-16.7,9.1c-12.3,0-27.1-6.1-36.4-16.2L1565.1,759.1z M1503,686.1c12.8,0,19.5,8.7,19.7,18.8h-42
		C1484.1,692.4,1492.4,686.1,1503,686.1 M1504.1,778.1c22.7,0,43.5-11.5,52-33.4l-29-9.3c-3.2,10-11.7,15.2-22.5,15.2
		c-13.2,0-22.5-8.9-24.9-24.5h77.3v-9.1c0-32.3-18.8-57.8-53.5-57.8c-32.9,0-57.2,25.6-57.2,59.3
		C1446.2,754.1,1469.6,778.1,1504.1,778.1 M1433.2,661.6h-34.7v66.1c0,13.4-9.1,20.1-18.6,20.1c-11.3,0-16.2-7.4-16.2-18.8v-67.4
		H1329v75.6c0,24.9,15.4,40.9,38.8,40.9c14.3,0,24.5-6.5,30.8-13.6v11.3h34.7V661.6z M1275.5,714v3.5c0,16.7-9.3,26-22.3,26
		c-14.7,0-22.7-11-22.7-27.9c0-16.9,8-27.7,22.7-27.7C1266.2,687.8,1275.5,697.1,1275.5,714 M1310,762.1V661.6h-34.9v11.3
		c-5.4-7.6-17.1-13.6-30.8-13.6c-31.2,0-49.2,25.3-49.2,56.5c0,31.2,18,56.3,49.2,56.3c13.6,0,25.3-5.8,30.8-13.4v7.4
		c0,16.9-10,24-24,24c-11.5,0-19.7-5.8-22.5-15.6l-32.9,7.8c6.1,22.3,26,34,54.4,34C1285.1,816.3,1310,797.4,1310,762.1
		 M1180.5,661.6h-34.7v66.1c0,13.4-9.1,20.1-18.6,20.1c-11.3,0-16.2-7.4-16.2-18.8v-67.4h-34.7v75.6c0,24.9,15.4,40.9,38.8,40.9
		c14.3,0,24.5-6.5,30.8-13.6v11.3h34.7V661.6z M1003.1,745.2c0,23.4,12.3,31.6,37,31.6c8.2,0,14.7-0.6,20.8-1.5v-28.4
		c-3.9,0.4-5.8,0.7-10,0.7c-8.7,0-13.6-1.7-13.6-11.3v-46.1h22.3v-28.6h-22.3V630h-34.2v31.6h-14.5v28.6h14.5V745.2z M975.3,661.4
		c-2.2-0.2-4.3-0.4-7.6-0.4c-13.2,0-24.3,6.5-29.5,15.6v-14.9h-34.7v114.2h34.7v-56.1c0-16.5,11.9-25.8,26.9-25.8
		c3.9,0,6.5,0.2,10.2,0.9V661.4z M809.6,718.8c0-19.9,8.9-31.2,22.7-31.2s22.7,11.3,22.7,31.2c0,19.9-8.9,31.2-22.7,31.2
		S809.6,738.7,809.6,718.8 M889.6,718.8c0-35.5-23.6-59.6-57.2-59.6c-33.8,0-57.2,24-57.2,59.6c0,35.5,23.4,59.3,57.2,59.3
		C866,778.1,889.6,754.3,889.6,718.8 M683.4,691.3v-40.5h27.5c17.1,0,25.8,7.4,25.8,20.1c0,12.8-8.7,20.4-25.8,20.4H683.4z
		 M683.4,721.6h29.5c36.6,0,59.3-17.5,59.3-50.7c0-33.4-22.7-50.7-59.3-50.7h-65.6v155.5h36.2V721.6z"/>
	<path d="M1551.7,516.7c0,11.7-10.6,17.8-22.1,17.8c-8.2,0-13.6-3.9-13.6-11c0-8,6.7-11,15.8-12.6l19.9-3.7V516.7z M1521.6,559.8
		c14.9,0,26.2-4.5,33.8-12.3c5.8,9.7,19.3,13.4,39.2,10.2v-25.6c-6.7,0.9-8.9-0.9-8.9-6.7v-44c0-26.6-18.4-40.3-48.3-40.3
		c-29,0-47,16.5-52,36.6l33.1,5c2.2-9.3,7.4-13.6,17.3-13.6c11.3,0,15.8,5.4,15.8,13.9v1.9l-25.6,4.3c-24,3.5-44,13-44,36.6
		C1482.2,546,1498.6,559.8,1521.6,559.8 M1469,443.5h-34.7v66.1c0,13.4-9.1,20.1-18.6,20.1c-11.3,0-16.2-7.4-16.2-18.8v-67.4h-34.7
		v75.6c0,24.9,15.4,40.9,38.8,40.9c14.3,0,24.5-6.5,30.8-13.6v11.3h34.7V443.5z M1312.4,495.9v3.5c0,16.7-9.3,26-22.3,26
		c-14.7,0-22.7-11-22.7-27.9c0-16.9,8-27.7,22.7-27.7C1303.1,469.7,1312.4,479,1312.4,495.9 M1346.8,544V443.5h-34.9v11.3
		c-5.4-7.6-17.1-13.6-30.8-13.6c-31.2,0-49.2,25.3-49.2,56.5c0,31.2,18,56.3,49.2,56.3c13.6,0,25.3-5.8,30.8-13.4v7.4
		c0,16.9-10,24-24,24c-11.5,0-19.7-5.8-22.5-15.6l-32.9,7.8c6.1,22.3,26,34,54.4,34C1321.9,598.2,1346.8,579.3,1346.8,544
		 M1113.5,557.7h34.7v-65.2c0-13.4,9.3-20.1,18.8-20.1c11.3,0,16,8.4,16,19.9v65.4h34.7v-75.4c0-24.9-14.7-41.2-38.1-41.2
		c-14.5,0-25.1,6.5-31.4,13.9v-11.5h-34.7V557.7z M1095.1,443.5h-34.7v114.2h34.7V443.5z M1064.4,434.2h27.3l25.6-32.1h-41.2
		L1064.4,434.2z M940,557.7h105.7v-31h-69.5V402.1H940V557.7z M837.6,516.7c0,11.7-10.6,17.8-22.1,17.8c-8.2,0-13.6-3.9-13.6-11
		c0-8,6.7-11,15.8-12.6l19.9-3.7V516.7z M807.5,559.8c14.9,0,26.2-4.5,33.8-12.3c5.8,9.7,19.3,13.4,39.2,10.2v-25.6
		c-6.7,0.9-8.9-0.9-8.9-6.7v-44c0-26.6-18.4-40.3-48.3-40.3c-29,0-47,16.5-52,36.6l33.1,5c2.2-9.3,7.4-13.6,17.3-13.6
		c11.3,0,15.8,5.4,15.8,13.9v1.9l-25.6,4.3c-24,3.5-44,13-44,36.6C768.1,546,784.5,559.8,807.5,559.8 M720.4,497.7v6.1
		c0,17.1-9.3,26.9-22.3,26.9c-15.2,0-23.2-12.3-23.2-29.9c0-17.5,8-29.9,23.2-29.9C711.1,470.8,720.4,480.3,720.4,497.7 M689.2,560
		c13.6,0,24.5-5.6,31-13.6v11.3h34.7V402.1h-34.7V455c-6.5-8.2-17.3-13.9-31-13.9c-31.4,0-49.2,26.9-49.2,59.6
		C640,533.2,657.8,560,689.2,560"/>
	<path d="M1293.5,225.4h-34.7v66.1c0,13.4-9.1,20.1-18.6,20.1c-11.3,0-16.2-7.4-16.2-18.8v-67.4h-34.7V301
		c0,24.9,15.4,40.9,38.8,40.9c14.3,0,24.5-6.5,30.8-13.6v11.3h34.7V225.4z M1120,249.9c12.8,0,19.5,8.7,19.7,18.8h-42
		C1101.2,256.2,1109.4,249.9,1120,249.9 M1121.1,341.9c22.7,0,43.5-11.5,52-33.4l-29-9.3c-3.2,10-11.7,15.2-22.5,15.2
		c-13.2,0-22.5-8.9-24.9-24.5h77.3v-9.1c0-32.3-18.8-57.8-53.5-57.8c-32.9,0-57.2,25.6-57.2,59.4
		C1063.3,317.9,1086.7,341.9,1121.1,341.9 M946.7,322.9c10.6,12.3,33.1,19.1,53.1,19.1c29,0,52-14.5,52-39.4
		c0-25.8-23-30.8-43.5-34.9c-13.9-2.6-20.6-3.5-20.6-9.7c0-5.2,5.4-8.4,13.9-8.4c11.3,0,22.5,5,31.2,14.1l17.3-22.3
		c-9.5-10.4-27.7-18.2-48.3-18.2c-28.2,0-48.7,15.4-48.7,38.6c0,24.7,20.1,29.7,39,33.4c18.2,3.2,25.8,4.1,25.8,11.7
		c0,6.1-7.6,9.1-16.7,9.1c-12.3,0-27.1-6.1-36.4-16.2L946.7,322.9z M934.6,225.4H900v66.1c0,13.4-9.1,20.1-18.6,20.1
		c-11.3,0-16.2-7.4-16.2-18.8v-67.4h-34.7V301c0,24.9,15.4,40.9,38.8,40.9c14.3,0,24.5-6.5,30.8-13.6v11.3h34.7V225.4z M741.8,339.6
		l34.2-107.7v107.7h34.4V184h-49.6l-31.6,102l-31.6-102h-50.5v155.5h34.4V231.9l34.2,107.7H741.8z"/>
</g>
<path class="st0" d="M155.7,504.2h132.2v10.7c0,75.1-44.7,110.9-132.2,114.5V776c200.1-1.8,328.7-107.3,328.7-295.1V184H155.7V504.2
	z"/>
</svg>
